<svg xmlns="http://www.w3.org/2000/svg" xmlns:xlink="http://www.w3.org/1999/xlink" version="1.1" x="0px" y="0px" viewBox="0 0 100 100" style="enable-background:new 0 0 100 100;" xml:space="preserve"><g><g><g><g><g><g><g><g><g><g><path d="M34.01,92.98H11.83c-2.65,0-4.81-2.16-4.81-4.81V65.99c0-1.1,0.9-2,2-2s2,0.9,2,2v22.18            c0,0.45,0.36,0.81,0.81,0.81h22.18c1.1,0,2,0.9,2,2S35.12,92.98,34.01,92.98z"/></g></g></g></g></g></g></g></g><g><g><g><g><g><g><g><g><path d="M88.17,92.98H65.99c-1.1,0-2-0.9-2-2s0.9-2,2-2h22.18c0.45,0,0.81-0.36,0.81-0.81V65.99c0-1.1,0.9-2,2-2            s2,0.9,2,2v22.18C92.98,90.82,90.82,92.98,88.17,92.98z"/></g></g></g></g></g></g></g></g><g><g><g><g><g><g><g><g><path d="M90.98,36.01c-1.1,0-2-0.9-2-2V11.83c0-0.45-0.36-0.81-0.81-0.81H65.99c-1.1,0-2-0.9-2-2s0.9-2,2-2h22.18            c2.65,0,4.81,2.16,4.81,4.81v22.18C92.98,35.12,92.08,36.01,90.98,36.01z"/></g></g></g></g></g></g></g></g><g><g><g><g><g><g><g><g><path d="M9.02,36.01c-1.1,0-2-0.9-2-2V11.83c0-2.65,2.16-4.81,4.81-4.81h22.18c1.1,0,2,0.9,2,2s-0.9,2-2,2H11.83            c-0.45,0-0.81,0.36-0.81,0.81v22.18C11.02,35.12,10.13,36.01,9.02,36.01z"/></g></g></g></g></g></g></g></g></g><g><g><g><g><g><g><g><g><path d="M50,65.82c-8.72,0-15.82-7.1-15.82-15.82S41.28,34.18,50,34.18S65.82,41.28,65.82,50S58.72,65.82,50,65.82z            M50,36.18c-7.62,0-13.82,6.2-13.82,13.82S42.38,63.82,50,63.82S63.82,57.62,63.82,50S57.62,36.18,50,36.18z"/></g></g></g></g></g></g></g></g></g></svg>