<svg id="svg8" clip-rule="evenodd" fill-rule="evenodd" height="512" stroke-linejoin="round" stroke-miterlimit="2" viewBox="0 0 24 24" width="512" xmlns="http://www.w3.org/2000/svg" xmlns:svg="http://www.w3.org/2000/svg"><path fill="#FFF" id="path2" d="m9.698502 16.999676h-6.698127c-.5527067 0-.9995308-.447176-.9995308-.999764v-11.9996411c0-.5525879.4468242-1.0005877.9995308-1.0005877h18.000025c.552707 0 .999531.4479998.999531 1.0005877v11.9996411c0 .552588-.446824.999764-.999531.999764h-4.000241v3.000116c0 .368941-.203294.707412-.527295.882-.326118.173765-.720001.154823-1.02706-.05024zm10.302367-1.999528v-10.0001129h-16.0009632v10.0001129h6.0014202c.196941 0 .389648.05847.552707.168l4.447065 2.963057v-2.131293c0-.552588.446824-.999764.99953-.999764z" stroke-width="1.321"/></svg>
