<svg id="svg6" clip-rule="evenodd" fill-rule="evenodd" height="512" stroke-linejoin="round" stroke-miterlimit="2" viewBox="0 0 24 24" width="512" xmlns="http://www.w3.org/2000/svg" xmlns:svg="http://www.w3.org/2000/svg"><path id="path2" fill="#026FFF" d="m12 3c-4.967 0-9 4.033-9 9s4.033 9 9 9 9-4.033 9-9-4.033-9-9-9zm0 2c3.863 0 7 3.137 7 7s-3.137 7-7 7-7-3.137-7-7 3.137-7 7-7zm1 6.586 2.707 2.707c.39.39.39 1.024 0 1.414s-1.024.39-1.414 0l-3-3c-.188-.187-.293-.442-.293-.707v-4c0-.552.448-1 1-1s1 .448 1 1zm-9.269-6.903.934-1c.377-.404.355-1.037-.048-1.414-.404-.377-1.037-.355-1.414.048l-.934 1c-.377.404-.355 1.037.048 1.414.404.377 1.037.355 1.414-.048zm15.562-.976 1 1c.39.39 1.024.39 1.414 0s.39-1.024 0-1.414l-1-1c-.39-.39-1.024-.39-1.414 0s-.39 1.024 0 1.414z"/></svg>