<svg id="svg8" clip-rule="evenodd" fill-rule="evenodd" height="512" stroke-linejoin="round" stroke-miterlimit="2" viewBox="0 0 24 24" width="512" xmlns="http://www.w3.org/2000/svg" xmlns:svg="http://www.w3.org/2000/svg"><path id="path2" fill="#fff" d="m8.811 16.02101 3.227-11.296c.117-.407.476-.696.899-.723.422-.027.815.215.982.604l2.74 6.394h4.341c.552 0 1 .448 1 1s-.448 1-1 1h-5c-.4 0-.762-.238-.919-.606l-1.892-4.415-3.227 11.296c-.117.407-.476.696-.899.723-.422.027-.815-.215-.982-.604l-2.74-6.394h-2.341c-.552 0-1-.448-1-1s.448-1 1-1h3c.4 0 .762.238.919.606z"/></svg>