<svg id="svg6" clip-rule="evenodd" fill-rule="evenodd" height="512" stroke-linejoin="round" stroke-miterlimit="2" viewBox="0 0 24 24" width="512" xmlns="http://www.w3.org/2000/svg" xmlns:svg="http://www.w3.org/2000/svg"><path fill="#026FFF" id="path2" d="m12 2c-5.519 0-10 4.481-10 10s4.481 10 10 10 10-4.481 10-10-4.481-10-10-10zm0 2c4.415 0 8 3.585 8 8s-3.585 8-8 8-8-3.585-8-8 3.585-8 8-8zm-5 7c-.552 0-1 .448-1 1 0 3.311 2.689 6 6 6s6-2.689 6-6c0-.552-.448-1-1-1zm8.874 2h-7.748c.445 1.724 2.012 3 3.874 3s3.429-1.276 3.874-3zm-6.874-6c.552 0 1 .448 1 1s-.448 1-1 1-1-.448-1-1 .448-1 1-1zm6 0c.552 0 1 .448 1 1s-.448 1-1 1-1-.448-1-1 .448-1 1-1z"/></svg>