<svg id="svg6" clip-rule="evenodd" fill-rule="evenodd" height="512" stroke-linejoin="round" stroke-miterlimit="2" viewBox="0 0 24 24" width="512" xmlns="http://www.w3.org/2000/svg" xmlns:svg="http://www.w3.org/2000/svg"><path id="path2" fill="#fff" d="m9 13.303-5.832-8.748c-.205-.307-.224-.702-.05-1.027s.513-.528.882-.528h16c.369 0 .708.203.882.528s.155.72-.05 1.027l-5.832 8.748v6.697c0 .308-.142.599-.385.788-.242.19-.559.257-.858.182l-4-1c-.445-.111-.757-.511-.757-.97zm9.131-8.303h-12.262l4.963 7.445c.11.165.168.358.168.555v5.219l2 .5v-5.719c0-.197.058-.39.168-.555z"/></svg>