<svg id="svg6" clip-rule="evenodd" fill-rule="evenodd" height="512" stroke-linejoin="round" stroke-miterlimit="2" viewBox="0 0 24 24" width="512" xmlns="http://www.w3.org/2000/svg" xmlns:svg="http://www.w3.org/2000/svg"><path fill="#026FFF" id="path2" d="m18 6h-3c-.552 0-1-.448-1-1s.448-1 1-1h4c.552 0 1 .448 1 1v14c0 .552-.448 1-1 1h-4c-.552 0-1-.448-1-1s.448-1 1-1h3zm-5.414 7h-7.586c-.552 0-1-.448-1-1s.448-1 1-1h7.586l-1.293-1.293c-.39-.39-.39-1.024 0-1.414s1.024-.39 1.414 0l3 3c.286.286.372.716.217 1.09-.052.126-.128.237-.222.329l-2.995 2.995c-.39.39-1.024.39-1.414 0s-.39-1.024 0-1.414z"/></svg>