<svg id="Layer_1" enable-background="new 0 0 128 128" height="512" viewBox="0 0 128 128" width="512" xmlns="http://www.w3.org/2000/svg"><path id="Mute" fill="#f52525" d="m49.656 32.688 19.516-19.516c.75-.75 1.767-1.172 2.828-1.172h12c2.209 0 4 1.791 4 4v55.031l-8-8v-43.031h-6.344l-18.343 18.344zm30.344 64.281v11.031h-6.344l-22.828-22.828c-.75-.75-1.767-1.172-2.828-1.172h-20c-2.205 0-4-1.795-4-4v-32c0-1.919 1.387-3.452 3.194-3.837l-6.015-6.015c-3.122 2.169-5.179 5.77-5.179 9.852v32c0 6.617 5.383 12 12 12h18.344l22.828 22.828c.75.75 1.767 1.172 2.828 1.172h12c2.209 0 4-1.791 4-4v-7.031zm38.828 21.859c1.563-1.563 1.563-4.094 0-5.656l-104-104c-1.563-1.563-4.094-1.563-5.656 0s-1.563 4.094 0 5.656l104 104c.781.781 1.805 1.172 2.828 1.172s2.047-.391 2.828-1.172z"/></svg>