<svg id="Layer_1" enable-background="new 0 0 512 512" height="512" viewBox="0 0 512 512" width="512" xmlns="http://www.w3.org/2000/svg"><path fill="#fff" d="m470.58 297.42c0 57.316-22.32 111.202-62.849 151.731s-94.415 62.849-151.731 62.849-111.202-22.32-151.731-62.849c-40.528-40.528-62.849-94.414-62.849-151.731s22.32-111.202 62.849-151.731c33.931-33.93 77.225-55.088 124.055-61.081l-29.981-29.981c-12.497-12.497-12.497-32.758 0-45.255s32.758-12.497 45.255 0l82.842 82.842c12.497 12.497 12.497 32.758 0 45.255l-82.842 82.842c-6.249 6.249-14.438 9.373-22.627 9.373s-16.379-3.124-22.627-9.373c-12.497-12.497-12.497-32.758 0-45.255l24.537-24.537c-67.15 15.131-117.46 75.248-117.46 146.901-.001 83.03 67.549 150.58 150.579 150.58s150.58-67.55 150.58-150.58c0-17.673 14.327-32 32-32s32 14.327 32 32z"/></svg>