<svg id="svg6" clip-rule="evenodd" fill-rule="evenodd" height="512" stroke-linejoin="round" stroke-miterlimit="2" viewBox="0 0 24 24" width="512" xmlns="http://www.w3.org/2000/svg" xmlns:svg="http://www.w3.org/2000/svg"><path id="path2" fill="#fff" d="m14.191 15.605c-1.169.876-2.62 1.395-4.191 1.395-3.863 0-7-3.137-7-7s3.137-7 7-7 7 3.137 7 7c0 1.571-.519 3.022-1.395 4.191l5.102 5.102c.39.39.39 1.024 0 1.414s-1.024.39-1.414 0zm-4.191-10.605c2.76 0 5 2.24 5 5s-2.24 5-5 5-5-2.24-5-5 2.24-5 5-5z"/></svg>