<svg id="svg6" clip-rule="evenodd" fill-rule="evenodd" height="512" stroke-linejoin="round" stroke-miterlimit="2" viewBox="0 0 24 24" width="512" xmlns="http://www.w3.org/2000/svg" xmlns:svg="http://www.w3.org/2000/svg"><path fill="#fff" id="path2" d="m19 17c0-1.657-1.343-3-3-3-2.22 0-5.78 0-8 0-1.657 0-3 1.343-3 3v3c0 .552.448 1 1 1h12c.552 0 1-.448 1-1zm-2 2v-2c0-.552-.448-1-1-1-2.22 0-5.78 0-8 0-.552 0-1 .448-1 1v2zm-1-13c0-1.657-1.343-3-3-3-.644 0-1.356 0-2 0-1.657 0-3 1.343-3 3v3c0 1.657 1.343 3 3 3h2c1.657 0 3-1.343 3-3zm-2 0c0-.552-.448-1-1-1-.644 0-1.356 0-2 0-.552 0-1 .448-1 1v3c0 .552.448 1 1 1h2c.552 0 1-.448 1-1z"/></svg>